<svg fill="#000000" viewBox="0 0 24 24" xmlns="http://www.w3.org/2000/svg"><g id="SVGRepo_bgCarrier" stroke-width="0"></g><g id="SVGRepo_tracerCarrier" stroke-linecap="round" stroke-linejoin="round"></g><g id="SVGRepo_iconCarrier"> <title></title> <g data-name="Layer 2" id="Layer_2"> <path d="M2,20H22V4H2Zm11-9.72a2,2,0,0,1,0,3.44Zm-2,3.44a2,2,0,0,1,0-3.44ZM20,14H19V10h1Zm0-6H17v8h3v2H13V15.86a4,4,0,0,0,0-7.72V6h7ZM11,6V8.14a4,4,0,0,0,0,7.72V18H4V16H7V8H4V6ZM4,14V10H5v4Z"></path> </g> </g></svg>