<!-- <svg fill="#000000" version="1.1" id="Layer_1" xmlns:x="&amp;ns_extend;" xmlns:i="&amp;ns_ai;" xmlns:graph="&amp;ns_graphs;" xmlns="http://www.w3.org/2000/svg" xmlns:xlink="http://www.w3.org/1999/xlink" viewBox="0 0 24 24" enable-background="new 0 0 24 24" xml:space="preserve"><g id="SVGRepo_bgCarrier" stroke-width="0"></g><g id="SVGRepo_tracerCarrier" stroke-linecap="round" stroke-linejoin="round"></g><g id="SVGRepo_iconCarrier"> <metadata> <sfw xmlns="&amp;ns_sfw;"> <slices> </slices> <slicesourcebounds width="505" height="984" bottomleftorigin="true" x="0" y="-120"> </slicesourcebounds> </sfw> </metadata> <g> <g> <g> <path d="M12,5c-0.6,0-1-0.4-1-1V1c0-0.6,0.4-1,1-1s1,0.4,1,1v3C13,4.6,12.6,5,12,5z"></path> </g> </g> <g> <g> <path d="M12,24c-0.6,0-1-0.4-1-1v-3c0-0.6,0.4-1,1-1s1,0.4,1,1v3C13,23.6,12.6,24,12,24z"></path> </g> </g> <g> <g> <path d="M4,13H1c-0.6,0-1-0.4-1-1s0.4-1,1-1h3c0.6,0,1,0.4,1,1S4.6,13,4,13z"></path> </g> </g> <g> <g> <path d="M23,13h-3c-0.6,0-1-0.4-1-1s0.4-1,1-1h3c0.6,0,1,0.4,1,1S23.6,13,23,13z"></path> </g> </g> <g> <g> <path d="M18.9,9c-0.3,0-0.7-0.2-0.9-0.5c-0.3-0.5-0.1-1.1,0.4-1.4L21,5.6c0.5-0.3,1.1-0.1,1.4,0.4c0.3,0.5,0.1,1.1-0.4,1.4 l-2.6,1.5C19.3,9,19.1,9,18.9,9z"></path> </g> </g> <g> <g> <path d="M2.5,18.5c-0.3,0-0.7-0.2-0.9-0.5c-0.3-0.5-0.1-1.1,0.4-1.4l2.6-1.5c0.5-0.3,1.1-0.1,1.4,0.4c0.3,0.5,0.1,1.1-0.4,1.4 L3,18.4C2.8,18.5,2.6,18.5,2.5,18.5z"></path> </g> </g> <g> <g> <path d="M16,6.1c-0.2,0-0.3,0-0.5-0.1c-0.5-0.3-0.6-0.9-0.4-1.4L16.6,2c0.3-0.5,0.9-0.6,1.4-0.4c0.5,0.3,0.6,0.9,0.4,1.4 l-1.5,2.6C16.7,5.9,16.3,6.1,16,6.1z"></path> </g> </g> <g> <g> <path d="M6.5,22.5c-0.2,0-0.3,0-0.5-0.1c-0.5-0.3-0.6-0.9-0.4-1.4l1.5-2.6C7.4,18,8,17.8,8.5,18.1c0.5,0.3,0.6,0.9,0.4,1.4 L7.4,22C7.2,22.3,6.8,22.5,6.5,22.5z"></path> </g> </g> <g> <g> <path d="M5.1,9C4.9,9,4.7,9,4.6,8.9L2,7.4C1.5,7.1,1.3,6.5,1.6,6C1.9,5.5,2.5,5.4,3,5.6l2.6,1.5C6.1,7.4,6.2,8,5.9,8.5 C5.8,8.8,5.4,9,5.1,9z"></path> </g> </g> <g> <g> <path d="M21.5,18.5c-0.2,0-0.3,0-0.5-0.1l-2.6-1.5c-0.5-0.3-0.6-0.9-0.4-1.4c0.3-0.5,0.9-0.6,1.4-0.4l2.6,1.5 c0.5,0.3,0.6,0.9,0.4,1.4C22.2,18.3,21.9,18.5,21.5,18.5z"></path> </g> </g> <g> <g> <path d="M8,6.1c-0.3,0-0.7-0.2-0.9-0.5L5.6,3C5.4,2.5,5.5,1.9,6,1.6C6.5,1.3,7.1,1.5,7.4,2l1.5,2.6C9.1,5.1,9,5.7,8.5,5.9 C8.3,6,8.2,6.1,8,6.1z"></path> </g> </g> <g> <g> <path d="M17.5,22.5c-0.3,0-0.7-0.2-0.9-0.5l-1.5-2.6c-0.3-0.5-0.1-1.1,0.4-1.4c0.5-0.3,1.1-0.1,1.4,0.4l1.5,2.6 c0.3,0.5,0.1,1.1-0.4,1.4C17.8,22.5,17.7,22.5,17.5,22.5z"></path> </g> </g> </g> </g></svg> -->


<svg height="256px" width="256px" version="1.1" id="Layer_1" xmlns="http://www.w3.org/2000/svg" xmlns:xlink="http://www.w3.org/1999/xlink" viewBox="0 0 512.00 512.00" xml:space="preserve" fill="#db1414" stroke="#db1414" stroke-width="0.00512"><g id="SVGRepo_bgCarrier" stroke-width="0"></g><g id="SVGRepo_tracerCarrier" stroke-linecap="round" stroke-linejoin="round"></g><g id="SVGRepo_iconCarrier"> <path style="fill:#2D50A7;" d="M267.636,0c-12.853,0-23.273,10.42-23.273,23.273v93.091c0,12.853,10.42,23.273,23.273,23.273 c12.853,0,23.273-10.42,23.273-23.273V23.273C290.909,10.42,280.489,0,267.636,0z"></path> <path style="fill:#73A1FB;" d="M267.638,372.364c-12.853,0-23.273,10.42-23.273,23.273v93.091c0,12.853,10.42,23.273,23.273,23.273 c12.853,0,23.273-10.42,23.273-23.273v-93.091C290.911,382.784,280.491,372.364,267.638,372.364z"></path> <path style="fill:#355EC9;" d="M185.355,140.808L119.529,74.98c-9.086-9.089-23.822-9.089-32.912,0 c-9.089,9.089-9.089,23.824,0,32.912l65.826,65.828c4.544,4.544,10.501,6.817,16.455,6.817c5.955,0,11.913-2.273,16.455-6.817 C194.444,164.631,194.444,149.897,185.355,140.808z"></path> <g> <path style="fill:#C4D9FD;" d="M477.091,232.727h-46.545c-12.853,0-23.273,10.42-23.273,23.273 c0,12.853,10.42,23.273,23.273,23.273h46.545c12.853,0,23.273-10.42,23.273-23.273 C500.364,243.147,489.944,232.727,477.091,232.727z"></path> <path style="fill:#C4D9FD;" d="M382.83,338.283c-9.087-9.089-23.823-9.087-32.912,0c-9.089,9.089-9.087,23.823,0,32.912 l65.828,65.825c4.544,4.544,10.501,6.816,16.457,6.816c5.956,0,11.913-2.273,16.455-6.816c9.089-9.089,9.089-23.824,0-32.912 L382.83,338.283z"></path> </g> <path style="fill:#3D6DEB;" d="M151.273,256c0-12.853-10.42-23.273-23.273-23.273H34.909c-12.853,0-23.273,10.42-23.273,23.273 c0,12.853,10.42,23.273,23.273,23.273H128C140.853,279.273,151.273,268.853,151.273,256z"></path> <path style="fill:#5286FA;" d="M185.355,338.283c-9.087-9.089-23.824-9.089-32.912,0l-65.825,65.825 c-9.089,9.087-9.089,23.824,0,32.912c4.544,4.544,10.501,6.816,16.457,6.816c5.956,0,11.913-2.271,16.455-6.816l65.825-65.825 C194.444,362.108,194.444,347.372,185.355,338.283z"></path> </g></svg>